<svg xmlns="http://www.w3.org/2000/svg" width="766.5135135971082" height="846.108107745865" style=""><rect id="backgroundrect" width="100%" height="100%" x="0" y="0" fill="none" stroke="none"/><g class="currentLayer" style=""><title>Layer 1</title><g transform="translate(-42.783931732177734,-22.753273010253906) scale(0.3889448344707489) " opacity="1" id="svg_3" class="" fill="#0bd5d5" fill-opacity="1"><defs class="defs" transform="translate(-1.4210854715202004e-14,0) translate(-102.84234619140625,11.118091583251953) translate(-1.4210854715202004e-14,0) translate(-25.015705108642578,44.47236633300781) translate(13.897614479064941,38.9133186340332) translate(-97.2833023071289,66.70854949951172) translate(-108.40139770507812,216.80279541015625) translate(340.4915466308594,8.338568687438965) translate(-1.4210854715202004e-14,1.3897614479064941) translate(13.897614479064941,-4.169284343719482) translate(-1.4210854715202004e-14,0) translate(-36.13379669189453,-22.236183166503906) translate(-1.4210854715202004e-14,0) translate(33.35427474975586,11.118091583251953) translate(-1.4210854715202004e-14,0) translate(-1.4210854715202004e-14,0) translate(-1.4210854715202004e-14,0) translate(-1.4210854715202004e-14,0) translate(-120.90924835205078,-175.1099395751953) translate(-1.4210854715202004e-14,0) translate(-1.4210854715202004e-14,0) translate(-1.4210854715202004e-14,0) translate(-1.4210854715202004e-14,0) translate(-1.4210854715202004e-14,0) translate(-1.4210854715202004e-14,0) translate(-1.4210854715202004e-14,0) translate(-1.4210854715202004e-14,0) translate(110,58.5) translate(138.66957092285156,415.4920349121094) translate(248.66952514648438,473.9920349121094) scale(2.0171988010406494,2.424227714538574) translate(-248.66952514648438,-473.9920349121094) translate(123.2746810913086,195.5229034423828) scale(1.2180267572402954,1.299471139907837) translate(-123.2746810913086,-195.5229034423828) translate(101.20851135253906,150.46343994140625) scale(1.5019999742507935,1.3845828771591187) translate(-101.20851135253906,-150.46343994140625) translate(67.38249969482422,108.67059326171875) scale(1.1790945529937744,1.184467077255249) translate(-67.38249969482422,-108.67059326171875) translate(57.147666931152344,91.74639892578125) scale(1.1806888580322266,1.1816948652267456) translate(-57.147666931152344,-91.74639892578125) translate(48.4019660949707,77.6396713256836) scale(1.1272118091583252,1.1227033138275146) translate(-48.4019660949707,-77.6396713256836) translate(42.939552307128906,69.15422058105469) scale(1.0661858320236206,1.051947832107544) translate(-42.939552307128906,-69.15422058105469) translate(40.273983001708984,65.73921203613281) scale(1.049343466758728,1.0416865348815918) translate(-40.273983001708984,-65.73921203613281) translate(19.718788146972656,39.79387664794922) scale(1.083807349205017,1.095428228378296) translate(-19.718788146972656,-39.79387664794922) translate(18.193998336791992,36.327239990234375) scale(1.0545836687088013,1.0573272705078125) translate(-18.193998336791992,-36.327239990234375) translate(17.252304077148438,34.357608795166016) scale(1.0268745422363281,1.0302988290786743) translate(-17.252304077148438,-34.357608795166016) translate(16.80078887939453,33.34722900390625) scale(1.0168012380599976,1.0128982067108154) translate(-16.80078887939453,-33.34722900390625) translate(20.83687400817871,34.14727020263672) scale(1.0149348974227905,1.009677767753601) translate(-20.83687400817871,-34.14727020263672) translate(15.92585563659668,31.394075393676758) scale(1.020350694656372,1.0166476964950562) translate(-15.92585563659668,-31.394075393676758) translate(32.79068374633789,70.84830474853516) scale(1.022706389427185,1.0367199182510376) translate(-32.79068374633789,-70.84830474853516) translate(19.504348754882812,69.48973846435547) scale(1.0702069997787476,1.073710322380066) translate(-19.504348754882812,-69.48973846435547) "/><path fill="#0bd5d5" d="M1838.7477773149876,932.8746923001497 C1842.7617473357989,768.8243959670356 1708.1710538650577,671.3381686550783 1708.1710538650577,671.3381686550783 c-126.54522517575303,194.96208154163003 0,394.6854078519543 0,394.6854078519543 c-78.342528419285,80.8270571626699 -178.77065607971537,80.8270571626699 -178.77065607971537,80.8270571626699 H163.40608472050212 c0,0 -94.40717262921335,737.0593617419805 672.9534673537081,737.0593617419805 c767.3518758562388,0 970.250172694237,-756.0732215699032 970.250172694237,-756.0732215699032 C2059.708939246637,1142.099761983293 2087.8330217723656,963.7864775086651 2087.8330217723656,963.7864775086651 C1981.3751749540356,878.1878024950162 1838.7477773149876,932.8746923001497 1838.7477773149876,932.8746923001497 zM346.2082390743952,1677.0603615717444 c-24.10134837823401,-19.024232910207473 -56.239400924773676,-73.7111227153404 -56.239400924773676,-73.7111227153404 c2.0069850104056712,0 158.69204184897572,23.775104596616963 347.51515123408535,-47.550209193233925 l22.094363367828336,68.94987794664617 C611.3668918683841,1665.1728092734359 370.31835157931215,1698.460030325156 346.2082390743952,1677.0603615717444 zM745.9575853391258,1570.0723908869688 c-28.11531839904535,0 -50.21844589355668,-26.150540439821718 -50.21844589355668,-59.43776149154245 s22.094363367828336,-59.42738840925769 50.21844589355668,-59.42738840925769 s50.21844589355668,26.150540439821718 50.21844589355668,59.42738840925769 C794.1690462222767,1543.9114773648614 772.0834469811315,1570.0723908869688 745.9575853391258,1570.0723908869688 z" class="color c1" id="svg_4" fill-opacity="1"/></g><defs class="defs" transform="translate(35.999996185302734,27) translate(96.46414947509766,214.05282592773438) "/><path d="M119.34092949578826,143.13083634301628 v56.47232384852954 v210.5830652241209 h386.7045074390236 v-210.5830652241209 v-56.47232384852954 zM239.76178729148756,155.6230939874148 c9.447405952572815,0 17.100932662303492,7.047294989417165 17.100932662303492,15.746377014950355 c0,8.694136555365176 -7.653526709730676,15.746377014950355 -17.100932662303492,15.746377014950355 c-9.447405952572815,0 -17.100932662303492,-7.047294989417165 -17.100932662303492,-15.746377014950355 c0,-8.699082025533192 7.653526709730676,-15.746377014950355 17.100932662303492,-15.746377014950355 zM194.8664681570043,155.6230939874148 c9.447405952572815,0 17.100932662303492,7.047294989417165 17.100932662303492,15.746377014950355 c0,8.694136555365176 -7.653526709730676,15.746377014950355 -17.100932662303492,15.746377014950355 c-9.442035056636161,0 -17.100932662303492,-7.047294989417165 -17.100932662303492,-15.746377014950355 c0.005370895936653135,-8.699082025533192 7.664268501603983,-15.746377014950355 17.100932662303492,-15.746377014950355 zM149.98189081439412,155.6230939874148 c9.447405952572815,0 17.100932662303492,7.047294989417165 17.100932662303492,15.746377014950355 c0,8.694136555365176 -7.653526709730676,15.746377014950355 -17.100932662303492,15.746377014950355 c-9.442035056636161,0 -17.100932662303492,-7.047294989417165 -17.100932662303492,-15.746377014950355 c0,-8.699082025533192 7.65889760566733,-15.746377014950355 17.100932662303492,-15.746377014950355 zM491.80182091080786,397.0658930599308 h-358.2172753910155 v-197.4627328683849 h358.21190449507895 v197.4627328683849 z" fill="#0bd5d5" class="fill c1" id="svg_6" fill-opacity="1"/></g></svg>