<svg xmlns="http://www.w3.org/2000/svg" width="123.38096498539392" height="28.85714396929947" style=""><rect id="backgroundrect" width="100%" height="100%" x="0" y="0" fill="none" stroke="none" class="" style=""/><g class="currentLayer" style=""><title>Layer 1</title><g opacity="1" id="svg_1" class="" fill="#1aebeb" fill-opacity="1"><path d="M29.79823726423836,11.56597166159082 L29.79823726423836,18.657009547370865 L28.220926312891592,18.657009547370865 L28.220926312891592,11.56597166159082 L26.20208448750303,11.56597166159082 L26.20208448750303,10.0495856556701 L31.81707908962691,10.0495856556701 L31.81707908962691,11.56597166159082 L29.79823726423836,11.56597166159082 zM36.01452720140601,11.949271006768125 L36.01452720140601,11.949271006768125 L36.01452720140601,11.949271006768125 Q36.331151315028116,11.949271006768125 36.53739271013974,12.003067406091251 L36.53739271013974,12.003067406091251 L36.421200374865585,13.68756715989674 L36.421200374865585,13.68756715989674 Q36.23238783004508,13.627046210658223 35.9651454589145,13.627046210658223 L35.9651454589145,13.627046210658223 L35.9651454589145,13.627046210658223 Q35.22151451315985,13.627046210658223 34.806126914554746,14.070866505074054 L34.806126914554746,14.070866505074054 L34.806126914554746,14.070866505074054 Q34.39073931594959,14.511324524532167 34.39073931594959,15.308183689506027 L34.39073931594959,15.308183689506027 L34.39073931594959,18.657009547370865 L32.83957164003953,18.657009547370865 L32.83957164003953,12.073675180202862 L34.01601903469043,12.073675180202862 L34.245498896856894,13.179863641284712 L34.3210239147851,13.179863641284712 L34.3210239147851,13.179863641284712 Q34.58536147753382,12.628450548222627 35.0356067767212,12.288860777495378 L35.0356067767212,12.288860777495378 L35.0356067767212,12.288860777495378 Q35.48585207590859,11.949271006768125 36.01452720140601,11.949271006768125 zM39.01519425986126,18.609937697963133 L36.75815814716066,12.073675180202862 L38.45747105054527,12.073675180202862 L39.529345343449414,15.778902183583417 L39.529345343449414,15.778902183583417 Q39.668776145778416,16.259707502533885 39.718157888269936,16.91871339424224 L39.718157888269936,16.91871339424224 L39.75011078047034,16.91871339424224 L39.75011078047034,16.91871339424224 Q39.80530213972556,16.313503901857022 39.96797140910938,15.778902183583417 L39.96797140910938,15.778902183583417 L41.01951204334055,12.073675180202862 L42.68396724614294,12.073675180202862 L40.278785905967766,19.49757828679478 L40.278785905967766,19.49757828679478 Q39.947637750436385,20.529796698807324 39.33472318186519,21.04086249237705 L39.33472318186519,21.04086249237705 L39.33472318186519,21.04086249237705 Q38.721808613293994,21.55529056090448 37.90265264961115,21.55529056090448 L37.90265264961115,21.55529056090448 L37.90265264961115,21.55529056090448 Q37.49888428453344,21.55529056090448 37.11254476974683,21.454422312173627 L37.11254476974683,21.454422312173627 L37.11254476974683,20.028817730110685 L37.11254476974683,20.028817730110685 Q37.394311182786694,20.106150054137668 37.72545933831805,20.106150054137668 L37.72545933831805,20.106150054137668 L37.72545933831805,20.106150054137668 Q38.135037320159476,20.106150054137668 38.442947008636004,19.813632132818142 L38.442947008636004,19.813632132818142 L38.442947008636004,19.813632132818142 Q38.75085669711255,19.52111421149863 38.92514520002378,18.9327160939019 L38.92514520002378,18.9327160939019 L39.01519425986126,18.609937697963133 zM46.48926622637173,11.56597166159082 L46.48926622637173,18.657009547370865 L44.91195527502499,18.657009547370865 L44.91195527502499,11.56597166159082 L42.89311344963643,11.56597166159082 L42.89311344963643,10.0495856556701 L48.5081080517603,10.0495856556701 L48.5081080517603,11.56597166159082 L46.48926622637173,11.56597166159082 zM54.78249415656506,14.363384426393557 L54.78249415656506,18.657009547370865 L53.23132648065497,18.657009547370865 L53.23132648065497,14.810566995767081 L53.23132648065497,14.810566995767081 Q53.23132648065497,13.388324688661845 52.31340703198913,13.388324688661845 L52.31340703198913,13.388324688661845 L52.31340703198913,13.388324688661845 Q51.6627299544538,13.388324688661845 51.37224911626842,13.899390482231576 L51.37224911626842,13.899390482231576 L51.37224911626842,13.899390482231576 Q51.08176827808298,14.4104562758013 51.08176827808298,15.560354311333201 L51.08176827808298,15.560354311333201 L51.08176827808298,18.657009547370865 L49.530600602172925,18.657009547370865 L49.530600602172925,9.49481028765032 L51.08176827808298,9.49481028765032 L51.08176827808298,11.360872889171391 L51.08176827808298,11.360872889171391 Q51.08176827808298,11.579420761421593 51.04691057750075,12.386366751268547 L51.04691057750075,12.386366751268547 L51.01205287691849,12.914243919626758 L51.09338751161039,12.914243919626758 L51.09338751161039,12.914243919626758 Q51.613348211962276,11.949271006768125 52.74041386412165,11.949271006768125 L52.74041386412165,11.949271006768125 L52.74041386412165,11.949271006768125 Q53.742572755861296,11.949271006768125 54.26253345621316,12.574654148899507 L54.26253345621316,12.574654148899507 L54.26253345621316,12.574654148899507 Q54.78249415656506,13.200037291030885 54.78249415656506,14.363384426393557 L54.78249415656506,14.363384426393557 zM56.31332817380213,10.372364051608882 L56.31332817380213,10.372364051608882 L56.31332817380213,10.372364051608882 Q56.31332817380213,9.49481028765032 57.15862741292169,9.49481028765032 L57.15862741292169,9.49481028765032 L57.15862741292169,9.49481028765032 Q58.001021843659345,9.49481028765032 58.001021843659345,10.372364051608882 L58.001021843659345,10.372364051608882 L58.001021843659345,10.372364051608882 Q58.001021843659345,10.789286146363121 57.79187564016586,11.02128311844412 L57.79187564016586,11.02128311844412 L57.79187564016586,11.02128311844412 Q57.5798246282905,11.25664236548283 57.15862741292169,11.25664236548283 L57.15862741292169,11.25664236548283 L57.15862741292169,11.25664236548283 Q56.31332817380213,11.25664236548283 56.31332817380213,10.372364051608882 zM57.931306442494844,12.073675180202862 L57.931306442494844,18.657009547370865 L56.380138766584786,18.657009547370865 L56.380138766584786,12.073675180202862 L57.931306442494844,12.073675180202862 zM63.525967385945776,16.703527796949714 L63.525967385945776,16.703527796949714 L63.525967385945776,16.703527796949714 Q63.525967385945776,17.715572559216092 62.91886243413825,18.2434497275743 L62.91886243413825,18.2434497275743 L62.91886243413825,18.2434497275743 Q62.31175748233076,18.774689170890213 61.10045238709763,18.774689170890213 L61.10045238709763,18.774689170890213 L61.10045238709763,18.774689170890213 Q60.478823393380864,18.774689170890213 60.043102136102746,18.677183197117035 L60.043102136102746,18.677183197117035 L60.043102136102746,18.677183197117035 Q59.604476070442786,18.57967722334387 59.22394617241991,18.391389825712913 L59.22394617241991,18.391389825712913 L59.22394617241991,16.908626569369154 L59.22394617241991,16.908626569369154 Q59.653857812934305,17.143985816407834 60.197056980341,17.302012739419535 L60.197056980341,17.302012739419535 L60.197056980341,17.302012739419535 Q60.73735133936587,17.46003966243122 61.14983412958915,17.46003966243122 L61.14983412958915,17.46003966243122 L61.14983412958915,17.46003966243122 Q61.995133368708665,17.46003966243122 61.995133368708665,16.895177469538368 L61.995133368708665,16.895177469538368 L61.995133368708665,16.895177469538368 Q61.995133368708665,16.683354147203538 61.88475065019823,16.552225423853418 L61.88475065019823,16.552225423853418 L61.88475065019823,16.552225423853418 Q61.77146312330591,16.41773442554559 61.49550632702979,16.252982952618495 L61.49550632702979,16.252982952618495 L61.49550632702979,16.252982952618495 Q61.22245433913548,16.084869204733714 60.76349461480254,15.859596782568115 L60.76349461480254,15.859596782568115 L60.76349461480254,15.859596782568115 Q60.107007920503534,15.543542936544725 59.79909823202699,15.271198664971388 L59.79909823202699,15.271198664971388 L59.79909823202699,15.271198664971388 Q59.49118854355047,14.998854393398041 59.351757741221476,14.649177797797691 L59.351757741221476,14.649177797797691 L59.351757741221476,14.649177797797691 Q59.212326938892495,14.299501202197352 59.212326938892495,13.788435408627619 L59.212326938892495,13.788435408627619 L59.212326938892495,13.788435408627619 Q59.212326938892495,12.910881644669058 59.79909823202699,12.430076325718588 L59.79909823202699,12.430076325718588 L59.79909823202699,12.430076325718588 Q60.38877433354335,11.949271006768125 61.46645824321122,11.949271006768125 L61.46645824321122,11.949271006768125 L61.46645824321122,11.949271006768125 Q62.494760410387556,11.949271006768125 63.46496640992683,12.46706135025325 L63.46496640992683,12.46706135025325 L62.99729226044832,13.764899483923745 L62.99729226044832,13.764899483923745 Q62.57028542831577,13.553076161588919 62.19846995543844,13.415222888323395 L62.19846995543844,13.415222888323395 L62.19846995543844,13.415222888323395 Q61.82665448256115,13.280731890015582 61.44031496777454,13.280731890015582 L61.44031496777454,13.280731890015582 L61.44031496777454,13.280731890015582 Q60.754780189657,13.280731890015582 60.754780189657,13.711103084600609 L60.754780189657,13.711103084600609 L60.754780189657,13.711103084600609 Q60.754780189657,13.953186881554696 60.97554562667791,14.128025179354875 L60.97554562667791,14.128025179354875 L60.97554562667791,14.128025179354875 Q61.19631106369879,14.306225752112745 61.94575162621717,14.652540072755386 L61.94575162621717,14.652540072755386 L61.94575162621717,14.652540072755386 Q62.610952745661734,14.965231643821086 62.921767242520104,15.234213640436733 L62.921767242520104,15.234213640436733 L62.921767242520104,15.234213640436733 Q63.2325817393785,15.506557912010072 63.377822158471204,15.859596782568115 L63.377822158471204,15.859596782568115 L63.377822158471204,15.859596782568115 Q63.525967385945776,16.21263565312615 63.525967385945776,16.703527796949714 zM71.61004911264557,14.3398485016897 L71.61004911264557,14.3398485016897 L71.61004911264557,14.3398485016897 Q71.61004911264557,16.47825537478411 70.69503447236156,17.62815341031601 L70.69503447236156,17.62815341031601 L70.69503447236156,17.62815341031601 Q69.78001983207754,18.774689170890213 68.06908769516552,18.774689170890213 L68.06908769516552,18.774689170890213 L68.06908769516552,18.774689170890213 Q66.36106036663533,18.774689170890213 65.44314091796943,17.62815341031601 L65.44314091796943,17.62815341031601 L65.44314091796943,17.62815341031601 Q64.5281262776854,16.47825537478411 64.5281262776854,14.329761676816611 L64.5281262776854,14.329761676816611 L64.5281262776854,14.329761676816611 Q64.5281262776854,12.181267978849116 65.44604572635127,11.044819043148003 L65.44604572635127,11.044819043148003 L65.44604572635127,11.044819043148003 Q66.36396517501719,9.911732382404583 68.08070692869292,9.911732382404583 L68.08070692869292,9.911732382404583 L68.08070692869292,9.911732382404583 Q69.79454387398678,9.911732382404583 70.70084408912527,11.054905868021082 L70.70084408912527,11.054905868021082 L70.70084408912527,11.054905868021082 Q71.61004911264557,12.198079353637588 71.61004911264557,14.3398485016897 zM66.18096224696038,14.3398485016897 L66.18096224696038,14.3398485016897 L66.18096224696038,14.3398485016897 Q66.18096224696038,15.782264458541112 66.65444601320257,16.515240399318756 L66.65444601320257,16.515240399318756 L66.65444601320257,16.515240399318756 Q67.12792977944478,17.244854065138707 68.06908769516552,17.244854065138707 L68.06908769516552,17.244854065138707 L68.06908769516552,17.244854065138707 Q69.95721314337065,17.244854065138707 69.95721314337065,14.3398485016897 L69.95721314337065,14.3398485016897 L69.95721314337065,14.3398485016897 Q69.95721314337065,11.431480663282992 68.08070692869292,11.431480663282992 L68.08070692869292,11.431480663282992 L68.08070692869292,11.431480663282992 Q67.1395490129722,11.431480663282992 66.66025562996627,12.164456604060636 L66.66025562996627,12.164456604060636 L66.66025562996627,12.164456604060636 Q66.18096224696038,12.89743254483828 66.18096224696038,14.3398485016897 zM78.2794891573825,14.363384426393557 L78.2794891573825,18.657009547370865 L76.72832148147243,18.657009547370865 L76.72832148147243,14.810566995767081 L76.72832148147243,14.810566995767081 Q76.72832148147243,14.097764704735614 76.51046085283336,13.744725834177569 L76.51046085283336,13.744725834177569 L76.51046085283336,13.744725834177569 Q76.28969541581245,13.388324688661845 75.8133068411884,13.388324688661845 L75.8133068411884,13.388324688661845 L75.8133068411884,13.388324688661845 Q75.15972495527124,13.388324688661845 74.8721489254677,13.88930365735848 L74.8721489254677,13.88930365735848 L74.8721489254677,13.88930365735848 Q74.58166808728227,14.393644901012818 74.58166808728227,15.560354311333201 L74.58166808728227,15.560354311333201 L74.58166808728227,18.657009547370865 L73.03050041137223,18.657009547370865 L73.03050041137223,12.073675180202862 L74.21566223116868,12.073675180202862 L74.42480843466218,12.914243919626758 L74.50904787773592,12.914243919626758 L74.50904787773592,12.914243919626758 Q74.77048063210277,12.440163150591673 75.22363073967203,12.194717078679897 L75.22363073967203,12.194717078679897 L75.22363073967203,12.194717078679897 Q75.6796856556231,11.949271006768125 76.26064733199394,11.949271006768125 L76.26064733199394,11.949271006768125 L76.26064733199394,11.949271006768125 Q77.25118699020618,11.949271006768125 77.76533807379434,12.571291873941812 L77.76533807379434,12.571291873941812 L77.76533807379434,12.571291873941812 Q78.2794891573825,13.193312741115498 78.2794891573825,14.363384426393557 L78.2794891573825,14.363384426393557 zM79.99913571944008,18.657009547370865 L79.99913571944008,10.0495856556701 L82.31426799977778,10.0495856556701 L82.31426799977778,10.0495856556701 Q83.89448375950639,10.0495856556701 84.61197142982434,10.570738274112909 L84.61197142982434,10.570738274112909 L84.61197142982434,10.570738274112909 Q85.32655429176044,11.091890892555737 85.32655429176044,12.228339828256857 L85.32655429176044,12.228339828256857 L85.32655429176044,12.228339828256857 Q85.32655429176044,12.998300793569147 85.0128349865202,13.49255521235039 L85.0128349865202,13.49255521235039 L85.0128349865202,13.49255521235039 Q84.69911568127996,13.986809631131665 84.18205978930992,14.087677879862527 L84.18205978930992,14.087677879862527 L84.18205978930992,14.144836554143353 L84.18205978930992,14.144836554143353 Q84.88792822610046,14.329761676816611 85.20164753134071,14.830740645513258 L85.20164753134071,14.830740645513258 L85.20164753134071,14.830740645513258 Q85.51246202819907,15.33171961420991 85.51246202819907,16.158839253803027 L85.51246202819907,16.158839253803027 L85.51246202819907,16.158839253803027 Q85.51246202819907,17.33899776395419 84.77754550759002,17.998003655662515 L84.77754550759002,17.998003655662515 L84.77754550759002,17.998003655662515 Q84.04262898698094,18.657009547370865 82.78194214925627,18.657009547370865 L82.78194214925627,18.657009547370865 L79.99913571944008,18.657009547370865 zM81.57644667078685,11.542435736886947 L81.57644667078685,13.45893246277345 L82.49146131107086,13.45893246277345 L82.49146131107086,13.45893246277345 Q83.13342396346064,13.45893246277345 83.42099999326418,13.226935490692444 L83.42099999326418,13.226935490692444 L83.42099999326418,13.226935490692444 Q83.70857602306775,12.998300793569147 83.70857602306775,12.46706135025325 L83.70857602306775,12.46706135025325 L83.70857602306775,12.46706135025325 Q83.70857602306775,11.972806931471991 83.39485671782748,11.757621334179467 L83.39485671782748,11.757621334179467 L83.39485671782748,11.757621334179467 Q83.08113741258724,11.542435736886947 82.40431705961525,11.542435736886947 L82.40431705961525,11.542435736886947 L81.57644667078685,11.542435736886947 zM82.55246228708981,14.904710694582565 L81.57644667078685,14.904710694582565 L81.57644667078685,17.15071036632324 L82.6047488379632,17.15071036632324 L82.6047488379632,17.15071036632324 Q83.25542591549849,17.15071036632324 83.56624041235689,16.86155471996141 L83.56624041235689,16.86155471996141 L83.56624041235689,16.86155471996141 Q83.8741501008334,16.57239907359959 83.8741501008334,15.977276406087466 L83.8741501008334,15.977276406087466 L83.8741501008334,15.977276406087466 Q83.8741501008334,14.904710694582565 82.55246228708981,14.904710694582565 L82.55246228708981,14.904710694582565 zM90.05267752903698,11.949271006768125 L90.05267752903698,11.949271006768125 L90.05267752903698,11.949271006768125 Q90.36639683427721,11.949271006768125 90.5755430377707,12.003067406091251 L90.5755430377707,12.003067406091251 L90.45935070249655,13.68756715989674 L90.45935070249655,13.68756715989674 Q90.27053815767601,13.627046210658223 90.00039097816361,13.627046210658223 L90.00039097816361,13.627046210658223 L90.00039097816361,13.627046210658223 Q89.25676003240893,13.627046210658223 88.8442772421857,14.070866505074054 L88.8442772421857,14.070866505074054 L88.8442772421857,14.070866505074054 Q88.42888964358059,14.511324524532167 88.42888964358059,15.308183689506027 L88.42888964358059,15.308183689506027 L88.42888964358059,18.657009547370865 L86.87772196767051,18.657009547370865 L86.87772196767051,12.073675180202862 L88.05126455393953,12.073675180202862 L88.28074441610602,13.179863641284712 L88.35626943403423,13.179863641284712 L88.35626943403423,13.179863641284712 Q88.62060699678294,12.628450548222627 89.0708522959703,12.288860777495378 L89.0708522959703,12.288860777495378 L89.0708522959703,12.288860777495378 Q89.52109759515767,11.949271006768125 90.05267752903698,11.949271006768125 zM92.84419838399873,15.355255538913768 L92.84419838399873,15.355255538913768 L92.84419838399873,15.355255538913768 Q92.84419838399873,16.330315276645514 93.1230599886567,16.83129424534215 L93.1230599886567,16.83129424534215 L93.1230599886567,16.83129424534215 Q93.39901678493281,17.3322732140388 94.0235505870315,17.3322732140388 L94.0235505870315,17.3322732140388 L94.0235505870315,17.3322732140388 Q94.64517958074825,17.3322732140388 94.91823156864251,16.83465652029986 L94.91823156864251,16.83465652029986 L94.91823156864251,16.83465652029986 Q95.18837874815496,16.33703982656089 95.18837874815496,15.355255538913768 L95.18837874815496,15.355255538913768 L95.18837874815496,15.355255538913768 Q95.18837874815496,14.376833526224361 94.91532676026067,13.885941382400787 L94.91532676026067,13.885941382400787 L94.91532676026067,13.885941382400787 Q94.63936996398452,13.398411513534931 94.0148361618859,13.398411513534931 L94.0148361618859,13.398411513534931 L94.0148361618859,13.398411513534931 Q93.39320716816916,13.398411513534931 93.12015518027488,13.885941382400787 L93.12015518027488,13.885941382400787 L93.12015518027488,13.885941382400787 Q92.84419838399873,14.37010897630895 92.84419838399873,15.355255538913768 zM96.77730893302913,15.355255538913768 L96.77730893302913,15.355255538913768 L96.77730893302913,15.355255538913768 Q96.77730893302913,16.96242296869228 96.04529722080187,17.866874932312406 L96.04529722080187,17.866874932312406 L96.04529722080187,17.866874932312406 Q95.31038070019281,18.774689170890213 94.0032169283585,18.774689170890213 L94.0032169283585,18.774689170890213 L94.0032169283585,18.774689170890213 Q93.18406096467564,18.774689170890213 92.55952716257701,18.361129351093652 L92.55952716257701,18.361129351093652 L92.55952716257701,18.361129351093652 Q91.9349933604784,17.944207256339386 91.59803558818332,17.167521741111706 L91.59803558818332,17.167521741111706 L91.59803558818332,17.167521741111706 Q91.26107781588827,16.390836225884016 91.26107781588827,15.355255538913768 L91.26107781588827,15.355255538913768 L91.26107781588827,15.355255538913768 Q91.26107781588827,13.741363559219877 91.99018471973365,12.843636145515152 L91.99018471973365,12.843636145515152 L91.99018471973365,12.843636145515152 Q92.71638681519715,11.949271006768125 94.03516982055889,11.949271006768125 L94.03516982055889,11.949271006768125 L94.03516982055889,11.949271006768125 Q94.85432578424172,11.949271006768125 95.47885958634035,12.36283082656468 L95.47885958634035,12.36283082656468 L95.47885958634035,12.36283082656468 Q96.10629819682083,12.77302837140354 96.44035116073404,13.54635161167354 L96.44035116073404,13.54635161167354 L96.44035116073404,13.54635161167354 Q96.77730893302913,14.316312576985833 96.77730893302913,15.355255538913768 zM104.422764594069,18.657009547370865 L102.73507092421178,18.657009547370865 L102.29644485855184,16.35385120134938 L101.70676875703542,13.445483362942657 L101.67191105645318,13.445483362942657 L100.63198965574946,18.657009547370865 L98.96462964456522,18.657009547370865 L97.3466513758725,12.073675180202862 L98.89200943501888,12.073675180202862 L99.54849612931788,14.988767568524954 L99.54849612931788,14.988767568524954 Q99.70826059031985,15.772177633668026 99.8709298597037,17.15071036632324 L99.8709298597037,17.15071036632324 L99.89997794352222,17.15071036632324 L99.89997794352222,17.15071036632324 Q99.92031160219521,16.703527796949714 100.0771712548153,15.731830334175685 L100.0771712548153,15.731830334175685 L100.1585058895072,15.230851365479039 L100.86146951791592,12.073675180202862 L102.57240165482793,12.073675180202862 L103.23760277427253,15.230851365479039 L103.23760277427253,15.230851365479039 Q103.25793643294551,15.358617813871478 103.3015085586733,15.614150710656334 L103.3015085586733,15.614150710656334 L103.3015085586733,15.614150710656334 Q103.34508068440111,15.866321332483498 103.38574800174709,16.15211470388764 L103.38574800174709,16.15211470388764 L103.38574800174709,16.15211470388764 Q103.42641531909304,16.437908075291762 103.45836821129346,16.710252346865104 L103.45836821129346,16.710252346865104 L103.45836821129346,16.710252346865104 Q103.49322591187565,16.985958893396152 103.4961307202575,17.15071036632324 L103.4961307202575,17.15071036632324 L103.52808361245795,17.15071036632324 L103.52808361245795,17.15071036632324 Q103.57456054656755,16.727063721653575 103.69075288184173,15.98736323096055 L103.69075288184173,15.98736323096055 L103.69075288184173,15.98736323096055 Q103.80694521711592,15.24766274026752 103.85923176798927,14.988767568524954 L103.85923176798927,14.988767568524954 L104.53895692934313,12.073675180202862 L106.06107652143466,12.073675180202862 L104.422764594069,18.657009547370865 zM110.94405941133135,16.703527796949714 L110.94405941133135,16.703527796949714 L110.94405941133135,16.703527796949714 Q110.94405941133135,17.715572559216092 110.33695445952385,18.2434497275743 L110.33695445952385,18.2434497275743 L110.33695445952385,18.2434497275743 Q109.72984950771632,18.774689170890213 108.51854441248318,18.774689170890213 L108.51854441248318,18.774689170890213 L108.51854441248318,18.774689170890213 Q107.89691541876644,18.774689170890213 107.46119416148831,18.677183197117035 L107.46119416148831,18.677183197117035 L107.46119416148831,18.677183197117035 Q107.02256809582838,18.57967722334387 106.64203819780548,18.391389825712913 L106.64203819780548,18.391389825712913 L106.64203819780548,16.908626569369154 L106.64203819780548,16.908626569369154 Q107.07194983831988,17.143985816407834 107.6151490057266,17.302012739419535 L107.6151490057266,17.302012739419535 L107.6151490057266,17.302012739419535 Q108.1583481731333,17.46003966243122 108.56792615497473,17.46003966243122 L108.56792615497473,17.46003966243122 L108.56792615497473,17.46003966243122 Q109.41322539409427,17.46003966243122 109.41322539409427,16.895177469538368 L109.41322539409427,16.895177469538368 L109.41322539409427,16.895177469538368 Q109.41322539409427,16.683354147203538 109.30284267558376,16.552225423853418 L109.30284267558376,16.552225423853418 L109.30284267558376,16.552225423853418 Q109.1895551486915,16.41773442554559 108.91359835241536,16.252982952618495 L108.91359835241536,16.252982952618495 L108.91359835241536,16.252982952618495 Q108.64054636452107,16.084869204733714 108.18158664018814,15.859596782568115 L108.18158664018814,15.859596782568115 L108.18158664018814,15.859596782568115 Q107.52509994588911,15.543542936544725 107.21719025741258,15.271198664971388 L107.21719025741258,15.271198664971388 L107.21719025741258,15.271198664971388 Q106.90928056893605,14.998854393398041 106.76984976660702,14.649177797797691 L106.76984976660702,14.649177797797691 L106.76984976660702,14.649177797797691 Q106.63041896427805,14.299501202197352 106.63041896427805,13.788435408627619 L106.63041896427805,13.788435408627619 L106.63041896427805,13.788435408627619 Q106.63041896427805,12.910881644669058 107.21719025741258,12.430076325718588 L107.21719025741258,12.430076325718588 L107.21719025741258,12.430076325718588 Q107.80686635892896,11.949271006768125 108.88455026859683,11.949271006768125 L108.88455026859683,11.949271006768125 L108.88455026859683,11.949271006768125 Q109.91285243577313,11.949271006768125 110.88305843531239,12.46706135025325 L110.88305843531239,12.46706135025325 L110.41538428583391,13.764899483923745 L110.41538428583391,13.764899483923745 Q109.98837745370135,13.553076161588919 109.61656198082402,13.415222888323395 L109.61656198082402,13.415222888323395 L109.61656198082402,13.415222888323395 Q109.24474650794673,13.280731890015582 108.85840699316012,13.280731890015582 L108.85840699316012,13.280731890015582 L108.85840699316012,13.280731890015582 Q108.17287221504257,13.280731890015582 108.17287221504257,13.711103084600609 L108.17287221504257,13.711103084600609 L108.17287221504257,13.711103084600609 Q108.17287221504257,13.953186881554696 108.3936376520635,14.128025179354875 L108.3936376520635,14.128025179354875 L108.3936376520635,14.128025179354875 Q108.61440308908439,14.306225752112745 109.36384365160272,14.652540072755386 L109.36384365160272,14.652540072755386 L109.36384365160272,14.652540072755386 Q110.02904477104728,14.965231643821086 110.3398592679057,15.234213640436733 L110.3398592679057,15.234213640436733 L110.3398592679057,15.234213640436733 Q110.65067376476408,15.506557912010072 110.79591418385678,15.859596782568115 L110.79591418385678,15.859596782568115 L110.79591418385678,15.859596782568115 Q110.94405941133135,16.21263565312615 110.94405941133135,16.703527796949714 zM114.5111641042481,13.226935490692444 L114.5111641042481,13.226935490692444 L114.5111641042481,13.226935490692444 Q114.01734667933292,13.226935490692444 113.73848507467491,13.590061186123574 L113.73848507467491,13.590061186123574 L113.73848507467491,13.590061186123574 Q113.45671866163508,13.953186881554696 113.41605134428914,14.61891732317843 L113.41605134428914,14.61891732317843 L115.59465763067968,14.61891732317843 L115.59465763067968,14.61891732317843 Q115.58303839715228,13.953186881554696 115.29546236734873,13.590061186123574 L115.29546236734873,13.590061186123574 L115.29546236734873,13.590061186123574 Q115.0049815291633,13.226935490692444 114.5111641042481,13.226935490692444 zM114.72902473288715,18.774689170890213 L114.72902473288715,18.774689170890213 L114.72902473288715,18.774689170890213 Q113.3550503682702,18.774689170890213 112.58237133869699,17.89713540693166 L112.58237133869699,17.89713540693166 L112.58237133869699,17.89713540693166 Q111.80969230912386,17.019581642973094 111.80969230912386,15.412414213194596 L111.80969230912386,15.412414213194596 L111.80969230912386,15.412414213194596 Q111.80969230912386,13.758174934008359 112.52427517105991,12.853722970388237 L112.52427517105991,12.853722970388237 L112.52427517105991,12.853722970388237 Q113.23885803299603,11.949271006768125 114.49954487072071,11.949271006768125 L114.49954487072071,11.949271006768125 L114.49954487072071,11.949271006768125 Q115.70504034919013,11.949271006768125 116.37895589378029,12.74613017174199 L116.37895589378029,12.74613017174199 L116.37895589378029,12.74613017174199 Q117.04996662998855,13.539627061758148 117.04996662998855,14.941695719117213 L117.04996662998855,14.941695719117213 L117.04996662998855,15.812524933160372 L113.38119364370687,15.812524933160372 L113.38119364370687,15.812524933160372 Q113.4073369191436,16.57912362351498 113.7733427752572,17.009494818100002 L113.7733427752572,17.009494818100002 L113.7733427752572,17.009494818100002 Q114.1393486313708,17.436503737727357 114.80164494243353,17.436503737727357 L114.80164494243353,17.436503737727357 L114.80164494243353,17.436503737727357 Q115.31579602602167,17.436503737727357 115.77185094197274,17.315461839250304 L115.77185094197274,17.315461839250304 L115.77185094197274,17.315461839250304 Q116.23081066630569,17.191057665815574 116.72753289960276,16.91871339424224 L116.72753289960276,16.91871339424224 L116.72753289960276,18.310695226728217 L116.72753289960276,18.310695226728217 Q116.32085972614321,18.546054473766905 115.8589951934284,18.66037182232856 L115.8589951934284,18.66037182232856 L115.8589951934284,18.66037182232856 Q115.39713066071359,18.774689170890213 114.72902473288715,18.774689170890213 zM121.4856090290797,11.949271006768125 L121.4856090290797,11.949271006768125 L121.4856090290797,11.949271006768125 Q121.80223314270177,11.949271006768125 122.0084745378134,12.003067406091251 L122.0084745378134,12.003067406091251 L121.89228220253925,13.68756715989674 L121.89228220253925,13.68756715989674 Q121.70346965771874,13.627046210658223 121.4333224782063,13.627046210658223 L121.4333224782063,13.627046210658223 L121.4333224782063,13.627046210658223 Q120.69259634083353,13.627046210658223 120.27720874222835,14.070866505074054 L120.27720874222835,14.070866505074054 L120.27720874222835,14.070866505074054 Q119.86182114362329,14.511324524532167 119.86182114362329,15.308183689506027 L119.86182114362329,15.308183689506027 L119.86182114362329,18.657009547370865 L118.31065346771321,18.657009547370865 L118.31065346771321,12.073675180202862 L119.48710086236413,12.073675180202862 L119.71658072453056,13.179863641284712 L119.79210574245879,13.179863641284712 L119.79210574245879,13.179863641284712 Q120.0564433052075,12.628450548222627 120.50668860439488,12.288860777495378 L120.50668860439488,12.288860777495378 L120.50668860439488,12.288860777495378 Q120.95693390358228,11.949271006768125 121.4856090290797,11.949271006768125 z" fill="#1aebeb" id="svg_2" fill-opacity="1"/></g><g transform="translate(-42.783931732177734,-22.753273010253906) scale(0.3889448344707489) " opacity="1" id="svg_3" class="" fill="#1aebeb" fill-opacity="1"><defs class="defs" transform="translate(1.7490195035934448,0) translate(-1.4210854715202004e-14,0) translate(-1.7490195035934448,0) translate(-1.4210854715202004e-14,0) translate(-13.992156028747559,-1.7490195035934448) translate(8.745097160339355,-10.49411678314209) translate(-1.4210854715202004e-14,0) translate(-10.49411678314209,-45.47450637817383) translate(-1.4210854715202004e-14,0) translate(-1.4210854715202004e-14,1.7490195035934448) translate(-1.4210854715202004e-14,1.7490195035934448) translate(-1.4210854715202004e-14,1.7490195035934448) translate(-1.4210854715202004e-14,1.7490195035934448) translate(-1.4210854715202004e-14,1.7490195035934448) translate(-1.4210854715202004e-14,6.996078014373779) translate(-117.18431091308594,-356.79998779296875) translate(110,58.5) translate(138.66957092285156,415.4920349121094) translate(131.48521423339844,132.9332275390625) scale(0.6320347189903259,0.5577207207679749) translate(-131.48521423339844,-132.9332275390625) translate(191.4311065673828,156.81454467773438) scale(0.5988259315490723,0.8121813535690308) translate(-191.4311065673828,-156.81454467773438) translate(305.8138427734375,166.0496826171875) scale(0.7549020648002625,0.8201372623443604) translate(-305.8138427734375,-166.0496826171875) translate(398.982421875,202.46571350097656) scale(0.9134199619293213,0.9373405575752258) translate(-398.982421875,-202.46571350097656) "/><path fill="#1aebeb" d="M165.74181536316866,83.99525396781742 C165.8613429424591,78.48815420709164 161.85351535476462,75.21558237330723 161.85351535476462,75.21558237330723 c-3.7682504746187604,6.5447954475397205 0,13.249423888451117 0,13.249423888451117 c-2.3328756141434384,2.7133304669981113 -5.323413891631932,2.7133304669981113 -5.323413891631932,2.7133304669981113 H115.85366573524092 c0,0 -2.8112469085527594,24.742774169988547 20.039137938472297,24.742774169988547 c22.850123869777697,0 28.892008123389363,-25.38106148338787 28.892008123389363,-25.38106148338787 C172.3215737235875,91.01885195541391 173.15904971036304,85.03294965463135 173.15904971036304,85.03294965463135 C169.98895908669147,82.15943797423245 165.74181536316866,83.99525396781742 165.74181536316866,83.99525396781742 zM121.29712916065807,108.97725529781978 c-0.7176874302376616,-0.6386355334284582 -1.6746909963036625,-2.47445152701342 -1.6746909963036625,-2.47445152701342 c0.05976378964524554,0 4.72551501793212,0.7981203067710045 10.348269812284999,-1.5962406135420102 l0.6579236405924167,2.3146185336417404 C129.19299577950915,108.57819514443425 122.01507756814311,109.69563321791951 121.29712916065807,108.97725529781978 zM133.2008233672036,105.38571391735027 c-0.8372150095281521,0 -1.4953996273679269,-0.8778626934422787 -1.4953996273679269,-1.995300766927512 s0.6579236405924167,-1.9949525468983798 1.4953996273679269,-1.9949525468983798 s1.4953996273679269,0.8778626934422787 1.4953996273679269,1.9949525468983798 C134.63645920492627,104.50750300387885 133.9787965415813,105.38571391735027 133.2008233672036,105.38571391735027 z" class="color c1" id="svg_4" fill-opacity="1"/></g><g transform="translate(-24.16305160522461,-18.122289657592773) scale(0.671195924282074) " opacity="1" id="svg_5" class="" fill="#1aebeb" fill-opacity="1"><defs class="defs" transform="translate(-1.0135223865509033,0) translate(0,3.04056715965271) translate(-1.0135223865509033,0) translate(195.6098175048828,-11.148746490478516) translate(-195.6098175048828,11.148746490478516) translate(-8.108179092407227,-1.0135223865509033) translate(7.094656944274902,33.44623947143555) translate(-15.202836036682129,-42.56793975830078) translate(0,1.0135223865509033) translate(0,1.0135223865509033) translate(0,1.0135223865509033) translate(0,1.0135223865509033) translate(0,1.0135223865509033) translate(-2.0270447731018066,0) translate(-67.906005859375,-206.75857543945312) translate(35.999996185302734,27) translate(96.46414947509766,214.05282592773438) translate(47.3282585144043,-3.20607852935791) scale(0.39531368017196655,0.4205089509487152) translate(-47.3282585144043,3.20607852935791) translate(137.6702117919922,71.91323852539062) scale(0.92829829454422,0.7603355646133423) translate(-137.6702117919922,-71.91323852539062) translate(123.44697570800781,91.41097259521484) scale(0.6652935147285461,0.7241923213005066) translate(-123.44697570800781,-91.41097259521484) "/><path d="M44.28769247328121,32.26720622248238 v2.644006620312447 v9.859396260576606 h17.578231622022507 v-9.859396260576606 v-2.644006620312447 zM49.76160262880019,32.852087623910634 c0.4294459642102458,0 0.7773484650627732,0.3299509093567947 0.7773484650627732,0.7372376809768656 c0,0.4070552271222773 -0.34790250085252916,0.7372376809768656 -0.7773484650627732,0.7372376809768656 c-0.4294459642102458,0 -0.7773484650627732,-0.3299509093567947 -0.7773484650627732,-0.7372376809768656 c0,-0.4072867716200717 0.34790250085252916,-0.7372376809768656 0.7773484650627732,-0.7372376809768656 zM47.72081876590455,32.852087623910634 c0.4294459642102458,0 0.7773484650627732,0.3299509093567947 0.7773484650627732,0.7372376809768656 c0,0.4070552271222773 -0.34790250085252916,0.7372376809768656 -0.7773484650627732,0.7372376809768656 c-0.42920182210438357,0 -0.7773484650627732,-0.3299509093567947 -0.7773484650627732,-0.7372376809768656 c0.00024414210586142475,-0.4072867716200717 0.34839078506425203,-0.7372376809768656 0.7773484650627732,-0.7372376809768656 zM45.68052318722064,32.852087623910634 c0.4294459642102458,0 0.7773484650627732,0.3299509093567947 0.7773484650627732,0.7372376809768656 c0,0.4070552271222773 -0.34790250085252916,0.7372376809768656 -0.7773484650627732,0.7372376809768656 c-0.42920182210438357,0 -0.7773484650627732,-0.3299509093567947 -0.7773484650627732,-0.7372376809768656 c0,-0.4072867716200717 0.3481466429583903,-0.7372376809768656 0.7773484650627732,-0.7372376809768656 zM61.21845923055923,44.156321550723305 h-16.283301892533515 v-9.245108707928482 h16.283057750427652 v9.245108707928482 z" fill="#1aebeb" class="fill c1" id="svg_6" fill-opacity="1"/></g></g></svg>